<svg width="18" height="19" viewBox="0 0 18 19" fill="none" xmlns="http://www.w3.org/2000/svg">
<path d="M13.2 5.3C13.2 6.29411 12.3941 7.1 11.4 7.1C10.4059 7.1 9.6 6.29411 9.6 5.3M13.2 5.3C13.2 4.30589 12.3941 3.5 11.4 3.5C10.4059 3.5 9.6 4.30589 9.6 5.3M13.2 5.3H15M9.6 5.3H3M8.4 9.5C8.4 10.4941 7.59411 11.3 6.6 11.3C5.60589 11.3 4.8 10.4941 4.8 9.5M8.4 9.5C8.4 8.50589 7.59411 7.7 6.6 7.7C5.60589 7.7 4.8 8.50589 4.8 9.5M8.4 9.5H15M4.8 9.5H3M13.2 13.7C13.2 14.6941 12.3941 15.5 11.4 15.5C10.4059 15.5 9.6 14.6941 9.6 13.7M13.2 13.7C13.2 12.7059 12.3941 11.9 11.4 11.9C10.4059 11.9 9.6 12.7059 9.6 13.7M13.2 13.7H15M9.6 13.7H3" stroke="black"/>
</svg>
